<svg version="1.1" xmlns="http://www.w3.org/2000/svg" viewBox="0 0 424 173" width="424" height="173">
  <!-- svg-source:excalidraw -->
  
  <defs>
    <style>
      @font-face {
        font-family: "Virgil";
        src: url("https://excalidraw.com/Virgil.woff2");
      }
      @font-face {
        font-family: "Cascadia";
        src: url("https://excalidraw.com/Cascadia.woff2");
      }
    </style>
  </defs>
  <g stroke-linecap="round" transform="translate(26 44) rotate(0 194 38.60598503740641)"><path d="M-0.72 -1.78 C148.22 -1.79, 298.89 -0.4, 389.35 -0.66 M0.64 -0.29 C96.57 -1.4, 195.57 -0.99, 387.19 -1.07 M388.14 2.03 C392.43 23.61, 391.39 49, 385.98 75.21 M389.42 -0.67 C389.81 14.73, 390.33 33.43, 388.78 76.49 M387.8 79.39 C277.29 77.61, 166.8 75.17, -1.18 76.59 M387.01 76.05 C246.87 81.15, 103.96 81.92, 0.98 78.37 M-3.84 75.76 C-2.18 57.07, 4.75 34.74, -0.59 -2.81 M1 77.36 C-0.79 48.54, -1.41 22.74, 1.4 1.83" stroke="#364fc7" stroke-width="1" fill="none"></path></g><g stroke-linecap="round" transform="translate(43.27283572239912 63.29950568870447) rotate(0 35.31670822942641 19.35162094763092)"><path d="M0.11 -2.85 C28.93 -4.68, 48.62 2.97, 73.79 0.71 M0.92 1.49 C21.03 0.46, 41.01 -1.23, 70.4 0.64 M70.88 3.15 C68.43 11.93, 69.14 26.71, 68.06 39.17 M69.56 -1.68 C71.59 8.67, 68.48 17.57, 70.35 40.23 M68.74 39.32 C48.28 40.85, 30.28 35.73, -0.92 40.56 M69.59 37.89 C48.04 38.14, 23.44 38.86, -0.31 39.89 M2.24 36.95 C-1.92 26.09, -1.01 13.79, -3.25 -2.11 M0.55 39.03 C1.24 29.93, -1.56 22.42, 0.25 1.64" stroke="#0b7285" stroke-width="1" fill="none"></path></g><g stroke-linecap="round" transform="translate(244.47880299251847 58.546134663341206) rotate(0 77.40648379052368 25.15710723192018)"><path d="M0.5 3.27 C41.25 1.83, 85.12 4.03, 158.28 2.64 M1.74 -0.75 C60.33 -2.64, 122.13 -1.19, 153.85 -0.7 M155.49 -2.28 C158.86 11.5, 154.4 20.06, 153.49 51.17 M153.03 -0.55 C152.94 16.04, 156.21 35.59, 154.41 49.32 M157.56 51.63 C96.68 46.86, 29.51 52.23, -2.5 49.76 M155.17 52.19 C121.59 51.66, 87.99 54.57, -0.92 50.35 M-1.24 51.37 C-0.7 37.8, 0.93 29.69, -2.96 2.02 M-1.48 52.03 C0.44 36.29, -0.71 20.9, 1.27 0.34" stroke="#a61e4d" stroke-width="1" fill="none"></path></g><g transform="translate(249.47880299251847 71.70324189526139) rotate(0 72.40648379052368 12)"><text x="72.40648379052374" y="17" font-family="Virgil, Segoe UI Emoji" font-size="19.30839567747301px" fill="#a61e4d" text-anchor="middle" style="white-space: pre;" direction="ltr">noise</text></g><g stroke-linecap="round" transform="translate(35.610972568578745 52.67581047381532) rotate(0 89.501246882793 30.962593516209466)"><path d="M3.48 2.12 C42.75 -4.16, 86.77 -1.56, 177.5 3.84 M-1.92 1.02 C66.55 2.87, 130.16 1.88, 179.45 -1.63 M179.35 -3.41 C181.95 11.53, 178.24 25.72, 176.46 63.54 M180.52 0.51 C178.89 22.76, 177.57 49.34, 177.3 60.97 M175.68 59.6 C140.66 62.47, 97.79 56.72, 3.94 58.21 M177.14 61.73 C134.25 62.89, 91.18 61.47, 1.89 60.4 M-0.84 60.36 C-0.67 48.08, 3.19 30.78, -2.25 -3.82 M0.14 61.15 C-2.52 41.13, 0.16 19.4, -0.06 -0.75" stroke="#087f5b" stroke-width="1" fill="none"></path></g><g transform="translate(48.27283572239912 70.65112663633539) rotate(0 30.31670822942641 12)"><text x="30.316708229426418" y="17" font-family="Virgil, Segoe UI Emoji" font-size="19.248703637731044px" fill="#087f5b" text-anchor="middle" style="white-space: pre;" direction="ltr">carry</text></g><g stroke-linecap="round" transform="translate(123.17705735660911 63.319201995012975) rotate(0 43.5411471321695 21.286783042394035)"><path d="M3.78 -1.95 C21.85 2.27, 33.36 -1.31, 85.7 0.15 M0.95 -1.99 C30.47 0.73, 63.7 1.15, 87.61 0.81 M83.5 1.56 C89.47 15.22, 83.3 24.69, 84.55 46.54 M85.31 -0.87 C84.54 12.96, 85.46 26.61, 85.69 43.87 M85.54 45.92 C71.62 40.51, 50.01 40.74, -2.16 41.74 M85.45 44.45 C55.35 43.91, 24.36 42.43, 0.99 42.77 M-3.26 44.49 C1.26 31.11, -1.14 19.41, -1.89 2.33 M-1.27 43.89 C-1.22 30.47, 1.35 21.91, -0.8 -1.4" stroke="#0b7285" stroke-width="1" fill="none"></path></g><g transform="translate(128.1770573566091 72.60598503740698) rotate(0 38.5411471321695 12)"><text x="38.54114713216951" y="17" font-family="Virgil, Segoe UI Emoji" font-size="19.27057356608477px" fill="#087f5b" text-anchor="middle" style="white-space: pre;" direction="ltr">message</text></g><g transform="translate(371 138) rotate(0 20 12.5)"><text x="0" y="18" font-family="Virgil, Segoe UI Emoji" font-size="20px" fill="#364fc7" text-anchor="start" style="white-space: pre;" direction="ltr">LSB</text></g><g transform="translate(10 135) rotate(0 21.5 12.5)"><text x="0" y="18" font-family="Virgil, Segoe UI Emoji" font-size="20px" fill="#364fc7" text-anchor="start" style="white-space: pre;" direction="ltr">MSB</text></g><g transform="translate(162 10) rotate(0 51 12.5)"><text x="0" y="18" font-family="Virgil, Segoe UI Emoji" font-size="20px" fill="#364fc7" text-anchor="start" style="white-space: pre;" direction="ltr">Ciphertext</text></g></svg>